<?xml version="1.0" encoding="utf-8"?>
<!-- Generator: Adobe Illustrator 28.1.0, SVG Export Plug-In . SVG Version: 6.00 Build 0)  -->
<svg version="1.1" id="Livello_1" xmlns="http://www.w3.org/2000/svg" xmlns:xlink="http://www.w3.org/1999/xlink" x="0px" y="0px"
	 viewBox="0 0 47 46" style="enable-background:new 0 0 47 46;" xml:space="preserve">
<style type="text/css">
	.st0{fill:#0B1157;}
</style>
<path class="st0" d="M22.4,1.6c0.4-1,1.8-1,2.2,0L30.2,15c0.2,0.4,0.6,0.7,1,0.7l14.5,1.2c1.1,0.1,1.5,1.4,0.7,2.1l-11,9.4
	c-0.3,0.3-0.5,0.8-0.4,1.2l3.4,14.1c0.2,1-0.9,1.9-1.8,1.3l-12.4-7.6c-0.4-0.2-0.9-0.2-1.3,0L10.5,45c-0.9,0.6-2-0.3-1.8-1.3
	l3.4-14.1c0.1-0.4,0-0.9-0.4-1.2L0.7,19c-0.8-0.7-0.4-2,0.7-2.1l14.4-1.2c0.4,0,0.8-0.3,1-0.7L22.4,1.6z"/>
</svg>
